<?xml version="1.0" encoding="UTF-8"?>
<svg id="SVGDoc" width="8" height="8" xmlns="http://www.w3.org/2000/svg" version="1.1" xmlns:xlink="http://www.w3.org/1999/xlink" xmlns:avocode="https://avocode.com/" viewBox="0 0 8 8"><defs></defs><desc>Generated with Avocode.</desc><g><g><title>link</title><path d="M7.50443,4.99848h-4.0023c-0.27634,0 -0.50034,-0.22361 -0.50034,-0.50015v-4.00221c0,-0.27654 0.224,-0.50015 0.50034,-0.50015h4.0023c0.27626,0 0.50026,0.22361 0.50026,0.50015v4.00221c0,0.27654 -0.224,0.50015 -0.50026,0.50015zM7.00409,0.99627h-3.00171v3.0014h3.00171zM4.50264,8.0004h-4.00223c-0.27641,0 -0.50034,-0.22412 -0.50034,-0.50015v-4.00247c0,-0.27628 0.22392,-0.50041 0.50034,-0.50041h1.50078v1.0003h-1.00052v3.00218h3.00171v-1.00081h1.0006v1.50122c0,0.27602 -0.224,0.50015 -0.50034,0.50015z" fill="#ffffff" fill-opacity="1"></path><path d="M7.50443,4.99848h-4.0023c-0.27634,0 -0.50034,-0.22361 -0.50034,-0.50015v-4.00221c0,-0.27654 0.224,-0.50015 0.50034,-0.50015h4.0023c0.27626,0 0.50026,0.22361 0.50026,0.50015v4.00221c0,0.27654 -0.224,0.50015 -0.50026,0.50015zM7.00409,0.99627h-3.00171v3.0014h3.00171zM4.50264,8.0004h-4.00223c-0.27641,0 -0.50034,-0.22412 -0.50034,-0.50015v-4.00247c0,-0.27628 0.22392,-0.50041 0.50034,-0.50041h1.50078v1.0003h-1.00052v3.00218h3.00171v-1.00081h1.0006v1.50122c0,0.27602 -0.224,0.50015 -0.50034,0.50015z" fill="#a38b70" fill-opacity="1"></path></g></g></svg>