<svg width="8" height="8" xmlns="http://www.w3.org/2000/svg"><path d="M7.504 4.998H3.502a.5.5 0 01-.5-.5V.496a.5.5 0 01.5-.5h4.002a.5.5 0 01.5.5v4.002a.5.5 0 01-.5.5zm-.5-4.002H4.002v3.002h3.002zM4.503 8H.5a.5.5 0 01-.5-.5V3.498a.5.5 0 01.5-.5h1.501v1h-1V7h3.001V5.999h1.001V7.5a.5.5 0 01-.5.5z" fill="#fff"/><path d="M7.504 4.998H3.502a.5.5 0 01-.5-.5V.496a.5.5 0 01.5-.5h4.002a.5.5 0 01.5.5v4.002a.5.5 0 01-.5.5zm-.5-4.002H4.002v3.002h3.002zM4.503 8H.5a.5.5 0 01-.5-.5V3.498a.5.5 0 01.5-.5h1.501v1h-1V7h3.001V5.999h1.001V7.5a.5.5 0 01-.5.5z" fill="#a38b70"/></svg>