<svg xmlns="http://www.w3.org/2000/svg" xmlns:xlink="http://www.w3.org/1999/xlink" xmlns:avocode="https://avocode.com/"><symbol id="icon-checkbox" viewBox="0 0 16.6 11.9">
  <g id="a1633f44-97f8-4e16-b1ae-356118e6bddb" data-name="&#x421;&#x43B;&#x43E;&#x439; 2">
    <g id="bad88bb6-a1cf-4dd0-9fa2-dd73218c8c15" data-name="Layer 1">
      <line x1="1" y1="6.1" x2="5.8" y2="10.9" style="fill: none;stroke: #231f20;stroke-linecap: round;stroke-miterlimit: 10;stroke-width: 2px"/>
      <line x1="5.8" y1="10.9" x2="15.6" y2="1" style="fill: none;stroke: #231f20;stroke-linecap: round;stroke-miterlimit: 10;stroke-width: 2px"/>
    </g>
  </g>
</symbol><symbol id="icon-link" viewBox="0 0 8 8"><desc>Generated with Avocode.</desc><g><g><title>link</title><path d="M7.50443,4.99848h-4.0023c-0.27634,0 -0.50034,-0.22361 -0.50034,-0.50015v-4.00221c0,-0.27654 0.224,-0.50015 0.50034,-0.50015h4.0023c0.27626,0 0.50026,0.22361 0.50026,0.50015v4.00221c0,0.27654 -0.224,0.50015 -0.50026,0.50015zM7.00409,0.99627h-3.00171v3.0014h3.00171zM4.50264,8.0004h-4.00223c-0.27641,0 -0.50034,-0.22412 -0.50034,-0.50015v-4.00247c0,-0.27628 0.22392,-0.50041 0.50034,-0.50041h1.50078v1.0003h-1.00052v3.00218h3.00171v-1.00081h1.0006v1.50122c0,0.27602 -0.224,0.50015 -0.50034,0.50015z" fill="#ffffff" fill-opacity="1"/><path d="M7.50443,4.99848h-4.0023c-0.27634,0 -0.50034,-0.22361 -0.50034,-0.50015v-4.00221c0,-0.27654 0.224,-0.50015 0.50034,-0.50015h4.0023c0.27626,0 0.50026,0.22361 0.50026,0.50015v4.00221c0,0.27654 -0.224,0.50015 -0.50026,0.50015zM7.00409,0.99627h-3.00171v3.0014h3.00171zM4.50264,8.0004h-4.00223c-0.27641,0 -0.50034,-0.22412 -0.50034,-0.50015v-4.00247c0,-0.27628 0.22392,-0.50041 0.50034,-0.50041h1.50078v1.0003h-1.00052v3.00218h3.00171v-1.00081h1.0006v1.50122c0,0.27602 -0.224,0.50015 -0.50034,0.50015z" fill="#a38b70" fill-opacity="1"/></g></g></symbol></svg>